# xmcd
#
# Track frame offsets: 
#        150
#        11893
#        26867
#        40814
#        60378
#        77150
#        91142
#        106284
#        127650
#        150983
#        169534
#
# Disc length: 2532 seconds
#
# Revision: 1
# Processed by: cddbd v1.5.1PL0 Copyright (c) Steve Scherf et al.
# Submitted via: ExactAudioCopy v0.95a5
#
DISCID=7509e20b
DTITLE=William Galison and Madeleine Peyroux - Got You on My mind
DYEAR=2004
DGENRE=
TTITLE0=Back In Your Own Backyard
TTITLE1=J'ai Deux Amours
TTITLE2=Flambee Mantalbanese
TTITLE3=Got You On My Mind
TTITLE4=Jealous Guy
TTITLE5=The Way You Look Tonight
TTITLE6=Rag for Madi
TTITLE7=Playin'
TTITLE8=Shoulda Known
TTITLE9=Heaven To Me
TTITLE10=Heaven Help Us All
EXTD=
EXTT0=
EXTT1=
EXTT2=
EXTT3=
EXTT4=
EXTT5=
EXTT6=
EXTT7=
EXTT8=
EXTT9=
EXTT10=
PLAYORDER=
